<svg width="40" height="40" viewBox="0 0 40 40" xmlns="http://www.w3.org/2000/svg"><path fill-rule="evenodd" clip-rule="evenodd" d="M1.29266 1.29266C0.902446 1.68287 0.902446 2.31553 1.29266 2.70575L37.2943 38.7073C37.6845 39.0976 38.3171 39.0976 38.7073 38.7073C39.0976 38.3171 39.0976 37.6845 38.7073 37.2942L2.70575 1.29266C2.31553 0.902447 1.68288 0.902447 1.29266 1.29266Z"/><path fill-rule="evenodd" clip-rule="evenodd" d="M38.0008 1C37.449 1 37.0016 1.44736 37.0016 1.9992V37.0016H1.99921C1.44736 37.0016 1 37.4489 1 38.0008C1 38.5526 1.44736 39 1.99921 39H38.0008C38.5526 39 39 38.5526 39 38.0008V1.9992C39 1.44736 38.5526 1 38.0008 1Z"/></svg>