<svg width="26" height="26" viewBox="0 0 26 26" xmlns="http://www.w3.org/2000/svg"><path d="M9.55574 3.00331C9.55574 3.00331 5.95694 3.25059 3.60336 5.14052C3.59232 5.14493 3.57907 5.15155 3.56804 5.15818C3.15958 5.53572 2.85269 6.12081 2.47294 6.95979C2.09319 7.79878 1.69136 8.87842 1.32485 10.0861C0.594051 12.5037 0.000138402 15.4711 0.000138402 18.264C-0.00207157 18.3634 0.0222156 18.4605 0.0707898 18.5466C0.89653 19.9972 2.41554 20.8737 3.83298 21.4257C5.25042 21.9776 6.55968 22.1984 7.22425 22.2205C7.41191 22.2271 7.59075 22.141 7.70114 21.9909L9.07885 20.0833C10.1894 20.346 11.492 20.5249 13 20.5249C14.508 20.5249 15.8106 20.346 16.9212 20.0833L18.2989 21.9909C18.4092 22.141 18.5881 22.2271 18.7758 22.2205C19.4403 22.1984 20.7496 21.9776 22.167 21.4257C23.5845 20.8737 25.1035 19.9972 25.9292 18.5466C25.9778 18.4605 26.0021 18.3634 25.9999 18.264C25.9999 15.4711 25.4059 12.5037 24.6751 10.0861C24.3086 8.87842 23.9068 7.79878 23.5271 6.95979C23.1473 6.12081 22.8404 5.53572 22.432 5.15818C22.4209 5.15155 22.4077 5.14493 22.3966 5.14052C20.0431 3.25059 16.4443 3.00331 16.4443 3.00331C16.4023 2.9989 16.3626 2.9989 16.3206 3.00331C16.1241 3.02981 15.9585 3.15786 15.879 3.33891C15.879 3.33891 15.687 3.7606 15.5611 4.36335C14.4594 4.18672 13.5321 4.13373 13 4.13373C12.4679 4.13373 11.5406 4.18672 10.4389 4.36335C10.313 3.7606 10.121 3.33891 10.121 3.33891C10.0238 3.11812 9.7964 2.98344 9.55574 3.00331ZM9.20249 4.22205C9.24444 4.33686 9.27314 4.44504 9.30846 4.5753C8.03453 4.87116 6.63916 5.35468 5.33432 6.16496C5.12899 6.25107 4.99431 6.44978 4.98769 6.67277C4.98327 6.89356 5.10912 7.09889 5.30783 7.19603C5.50875 7.29097 5.74719 7.26227 5.9172 7.11876C8.53572 5.49598 11.8674 5.26416 13 5.26416C14.1326 5.26416 17.4643 5.49598 20.0828 7.11876C20.2528 7.26227 20.4913 7.29097 20.6922 7.19603C20.8909 7.09889 21.0167 6.89355 21.0123 6.67277C21.0057 6.44978 20.871 6.25107 20.6657 6.16496C19.3608 5.35468 17.9655 4.87116 16.6915 4.5753C16.7269 4.44504 16.7556 4.33686 16.7975 4.22205C17.4422 4.30153 19.9481 4.63933 21.6548 5.98833C21.7652 6.0899 22.1494 6.65511 22.5026 7.43669C22.8559 8.21827 23.2268 9.23609 23.5801 10.404C24.2689 12.6826 24.8253 15.4932 24.8518 18.0697C24.2093 19.1096 23.0038 19.8824 21.7608 20.3659C20.6304 20.8053 19.575 21.0018 19.023 21.0547L18.0692 19.7654C18.555 19.6086 18.9921 19.4386 19.3763 19.2708C20.8026 18.6438 21.5665 17.9814 21.5665 17.9814C21.8005 17.7717 21.8204 17.4118 21.6107 17.1778C21.4009 16.9437 21.041 16.9239 20.807 17.1336C20.807 17.1336 20.2153 17.6745 18.9171 18.2464C18.4402 18.4561 17.8617 18.6636 17.2038 18.8469C17.0514 18.8292 16.8991 18.8734 16.7799 18.9705C15.7267 19.2267 14.4749 19.3944 13 19.3944C11.5141 19.3944 10.2601 19.2112 9.2025 18.9529C9.08328 18.8734 8.93756 18.8403 8.79626 18.8646C8.13611 18.6813 7.56207 18.4561 7.08296 18.2464C5.78474 17.6745 5.19304 17.1336 5.19304 17.1336C5.06498 17.0144 4.88835 16.9636 4.71614 16.9923C4.49756 17.0254 4.31652 17.1822 4.2569 17.3963C4.19509 17.6083 4.26574 17.8379 4.43353 17.9814C4.43353 17.9814 5.19745 18.6438 6.62373 19.2708C7.00789 19.4386 7.44505 19.6086 7.93078 19.7654L6.97698 21.0548C6.42502 21.0018 5.36966 20.8053 4.23924 20.3659C2.99622 19.8824 1.79073 19.1096 1.14824 18.0697C1.17474 15.4932 1.73112 12.6826 2.41997 10.4041C2.77322 9.23609 3.14414 8.21827 3.4974 7.43669C3.85066 6.65511 4.23483 6.0899 4.34522 5.98834C6.05189 4.63934 8.55779 4.30153 9.20249 4.22205ZM9.32613 10.9163C7.8844 10.9163 6.78268 12.2255 6.78268 13.7423C6.78268 15.2591 7.8844 16.5684 9.32613 16.5684C10.7679 16.5684 11.8696 15.2591 11.8696 13.7423C11.8696 12.2255 10.7679 10.9163 9.32613 10.9163ZM16.6739 10.9163C15.2321 10.9163 14.1304 12.2255 14.1304 13.7423C14.1304 15.2591 15.2321 16.5684 16.6739 16.5684C18.1156 16.5684 19.2173 15.2591 19.2173 13.7423C19.2173 12.2255 18.1156 10.9163 16.6739 10.9163ZM9.32613 12.0467C10.0702 12.0467 10.7392 12.762 10.7392 13.7423C10.7392 14.7226 10.0702 15.438 9.32613 15.438C8.58208 15.438 7.9131 14.7226 7.9131 13.7423C7.9131 12.762 8.58208 12.0467 9.32613 12.0467ZM16.6739 12.0467C17.4179 12.0467 18.0869 12.762 18.0869 13.7423C18.0869 14.7226 17.4179 15.438 16.6739 15.438C15.9298 15.438 15.2608 14.7226 15.2608 13.7423C15.2608 12.762 15.9298 12.0467 16.6739 12.0467Z"/></svg>