<svg width="24" height="24" viewBox="0 0 24 24" xmlns="http://www.w3.org/2000/svg"><path d="M0.5 2.5C0.5 2.22386 0.723858 2 1 2H23C23.2761 2 23.5 2.22386 23.5 2.5V2.5C23.5 2.77614 23.2761 3 23 3H1C0.723858 3 0.5 2.77614 0.5 2.5V2.5Z"/><path d="M7.5 8.5C7.5 8.22386 7.72386 8 8 8H23C23.2761 8 23.5 8.22386 23.5 8.5V8.5C23.5 8.77614 23.2761 9 23 9H8C7.72386 9 7.5 8.77614 7.5 8.5V8.5Z"/><path d="M4.5 14.5C4.5 14.2239 4.72386 14 5 14H23C23.2761 14 23.5 14.2239 23.5 14.5V14.5C23.5 14.7761 23.2761 15 23 15H5C4.72386 15 4.5 14.7761 4.5 14.5V14.5Z"/><path d="M0.5 20.5C0.5 20.2239 0.723858 20 1 20H23C23.2761 20 23.5 20.2239 23.5 20.5V20.5C23.5 20.7761 23.2761 21 23 21H1C0.723858 21 0.5 20.7761 0.5 20.5V20.5Z"/></svg>