<svg width="26" height="26" viewBox="0 0 26 26" xmlns="http://www.w3.org/2000/svg"><path d="M22.5154 3.00153C22.2621 3.01264 22.0156 3.08313 21.7933 3.17216C21.5732 3.26059 20.3064 3.8013 18.4356 4.60114C16.5648 5.40098 14.133 6.44255 11.7223 7.47536C6.90102 9.54098 2.16326 11.5734 2.16326 11.5734L2.19779 11.5602C2.19779 11.5602 1.91185 11.6558 1.62194 11.8578C1.47698 11.9588 1.32103 12.0892 1.19334 12.2793C1.06565 12.4694 0.972305 12.7388 1.00748 13.0237C1.13105 14.0246 2.16834 14.3085 2.16834 14.3085L2.1724 14.3105L6.80162 15.8949C6.91964 16.2886 8.20568 20.581 8.48857 21.49C8.64481 21.9925 8.79104 22.2824 8.94357 22.4802C9.0199 22.5792 9.09989 22.6558 9.18834 22.7118C9.22348 22.734 9.26043 22.7507 9.29701 22.7656C9.29779 22.7659 9.29826 22.7653 9.29904 22.7656C9.30353 22.7676 9.30776 22.7678 9.31224 22.7697L9.30005 22.7666C9.30855 22.77 9.31694 22.7758 9.32544 22.7788C9.34195 22.7846 9.35206 22.7844 9.37318 22.789C9.90334 22.9741 10.3421 22.6305 10.3421 22.6305L10.3604 22.6163L13.2041 19.9787L17.8191 23.5771L17.877 23.6035C18.6848 23.9621 19.4153 23.762 19.8199 23.4329C20.2245 23.1037 20.3836 22.6793 20.3836 22.6793L20.4008 22.6346L23.792 4.95967C23.8788 4.56424 23.8911 4.22244 23.8093 3.91357C23.7274 3.60471 23.5286 3.33622 23.2791 3.1874C23.0296 3.03859 22.7686 2.99042 22.5154 3.00153ZM22.5428 4.05879C22.6456 4.05403 22.7219 4.06579 22.7459 4.08012C22.7699 4.09445 22.7807 4.09257 22.8038 4.17966C22.8269 4.26674 22.8394 4.45017 22.7764 4.73724L22.7744 4.74333L19.4025 22.3157C19.3945 22.3334 19.3242 22.4959 19.1638 22.6264C19.0002 22.7596 18.8181 22.8636 18.3351 22.661L13.2884 18.7254L13.1462 18.6137L13.1432 18.6168L11.634 17.4843L20.1155 7.50584C20.2486 7.34961 20.2774 7.12968 20.1889 6.94445C20.1005 6.75921 19.9114 6.64334 19.7062 6.64866C19.608 6.6512 19.5126 6.68149 19.4309 6.736L7.15811 14.9179L2.52178 13.3305C2.52178 13.3305 2.06139 13.0743 2.03936 12.8958C2.03814 12.8859 2.0327 12.8948 2.05662 12.8592C2.08055 12.8236 2.14068 12.7635 2.21608 12.7109C2.36687 12.6059 2.53904 12.5423 2.53904 12.5423L2.55631 12.5362L2.57357 12.5291C2.57357 12.5291 7.31158 10.4966 12.1326 8.43108C14.5432 7.39832 16.9746 6.35752 18.8449 5.55788C20.7147 4.75844 22.0658 4.18301 22.1802 4.13702C22.3104 4.08487 22.4399 4.06356 22.5428 4.05879ZM16.9183 9.66098L10.4863 17.2284L10.4833 17.2314C10.4732 17.2435 10.4637 17.2561 10.4548 17.269C10.4446 17.2831 10.4351 17.2977 10.4264 17.3127C10.3902 17.374 10.3671 17.4421 10.3583 17.5128C10.3583 17.5141 10.3583 17.5155 10.3583 17.5168L9.52044 21.2848C9.50651 21.2441 9.49676 21.2292 9.48185 21.1812V21.1802C9.21572 20.3251 8.00238 16.277 7.83451 15.7171L16.9183 9.66098ZM11.2125 18.4685L12.3683 19.3358L10.6701 20.91L11.2125 18.4685Z"/></svg>