<svg width="44" height="22" viewBox="0 0 44 22" fill="none" xmlns="http://www.w3.org/2000/svg">
<path d="M37.1139 0C38.4961 0 39.7066 0.243363 40.7454 0.730089C41.7842 1.21681 42.5842 1.89823 43.1455 2.77434C43.7152 3.64233 44 4.64012 44 5.7677C44 6.89528 43.7152 7.89712 43.1455 8.77323C42.5842 9.64122 41.7842 10.3186 40.7454 10.8053C39.7066 11.292 38.4961 11.5354 37.1139 11.5354H30.4539V18.2522H27.1365V0H37.1139ZM36.9882 8.76106C37.7338 8.76106 38.3788 8.63938 38.9234 8.39602C39.4763 8.15266 39.8993 7.80789 40.1925 7.36173C40.4857 6.90745 40.6323 6.37611 40.6323 5.7677C40.6323 5.15929 40.4857 4.63201 40.1925 4.18584C39.8993 3.73156 39.4763 3.38274 38.9234 3.13938C38.3788 2.89602 37.7338 2.77434 36.9882 2.77434H30.4539V8.76106H36.9882Z" fill="white"/>
<path d="M21.0856 15.4292H24.403V22H21.3118V18.2522H3.09122V22H0V15.4292H2.33726C3.06609 14.6261 3.60642 13.4742 3.95827 11.9735C4.31849 10.4646 4.4986 8.57448 4.4986 6.3031C4.4986 4.59956 4.38132 2.49853 4.14676 0H21.0856V15.4292ZM17.7682 15.4779V2.82301H7.43903C7.53956 4.25885 7.58982 5.62979 7.58982 6.93584C7.58982 8.97198 7.43484 10.7161 7.12488 12.1681C6.8233 13.6202 6.38349 14.7235 5.80546 15.4779H17.7682Z" fill="white"/>
</svg>
